<svg width="842" height="195" viewBox="0 0 842 195" fill="none" xmlns="http://www.w3.org/2000/svg">
<path d="M103.125 79.25C103.125 72.9167 102.083 66.625 100 60.375C98 54.125 94.4583 48.9583 89.375 44.875C84.2917 40.7083 77.25 38.625 68.25 38.625C55.0833 38.625 45.125 44.4167 38.375 56C31.7083 67.5 28.375 84.3333 28.375 106.5C28.375 127.167 32.0417 143.083 39.375 154.25C46.7083 165.417 56.8333 171 69.75 171C77.5 171 85.0833 169.375 92.5 166.125C99.9167 162.792 107.208 158.083 114.375 152C117.292 153.917 120.042 156.5 122.625 159.75C125.208 163 126.875 166.167 127.625 169.25C120.792 176.167 111.875 182.083 100.875 187C89.9583 191.833 78.125 194.25 65.375 194.25C53.375 194.25 43.2083 191.792 34.875 186.875C26.625 181.958 19.9583 175.333 14.875 167C9.79167 158.583 6.08333 149.167 3.75 138.75C1.5 128.25 0.375001 117.458 0.375001 106.375C0.375001 85.625 3.5 68.6667 9.75 55.5C16.0833 42.3333 24.4167 32.625 34.75 26.375C45.1667 20.0417 56.5 16.875 68.75 16.875C81.1667 16.875 91.875 19.2083 100.875 23.875C109.875 28.4583 116.833 34.5 121.75 42C126.667 49.4167 129.125 57.3333 129.125 65.75C129.125 70.3333 127.958 74 125.625 76.75C123.292 79.5 119.417 80.875 114 80.875C112 80.875 110.167 80.75 108.5 80.5C106.917 80.25 105.125 79.8333 103.125 79.25ZM196.879 149.75C195.962 149.75 193.837 149.75 190.504 149.75C187.254 149.667 184.546 149.583 182.379 149.5L169.129 191.25C167.462 191.667 165.629 191.917 163.629 192C161.629 192.167 159.629 192.25 157.629 192.25C152.712 192.25 148.379 191.667 144.629 190.5L143.879 189.25L200.254 20.25C202.337 19.9167 204.879 19.6667 207.879 19.5C210.879 19.3333 213.504 19.25 215.754 19.25C217.837 19.25 220.379 19.3333 223.379 19.5C226.379 19.6667 228.796 19.9583 230.629 20.375L286.754 189.375C284.837 190.542 282.462 191.375 279.629 191.875C276.879 192.458 274.087 192.75 271.254 192.75C267.004 192.75 263.712 191.792 261.379 189.875C259.046 187.958 257.046 184.208 255.379 178.625L246.129 149.5C243.962 149.583 241.171 149.667 237.754 149.75C234.337 149.75 232.171 149.75 231.254 149.75H196.879ZM203.629 82.75L189.254 127.875C191.171 127.875 193.504 127.833 196.254 127.75C199.087 127.667 201.004 127.625 202.004 127.625H226.879C227.796 127.625 229.546 127.667 232.129 127.75C234.796 127.75 237.171 127.792 239.254 127.875L227.754 91.75C225.504 84.5 223.171 76.8333 220.754 68.75C218.421 60.5833 216.421 53.2083 214.754 46.625H213.379C212.129 52.2083 210.504 58.5 208.504 65.5C206.587 72.4167 204.962 78.1667 203.629 82.75ZM340.961 191C338.878 191.417 336.669 191.667 334.336 191.75C332.086 191.917 329.878 192 327.711 192C325.628 192 323.378 191.917 320.961 191.75C318.628 191.667 316.419 191.417 314.336 191V21.75L315.961 20.25H414.961C415.961 23.4167 416.461 26.9167 416.461 30.75C416.461 39 411.419 43.125 401.336 43.125H364.586C355.836 43.125 347.919 43 340.836 42.75C340.836 47.75 340.836 52.7083 340.836 57.625C340.919 62.5417 340.961 67.4167 340.961 72.25V94.125C342.878 94.0417 344.711 94 346.461 94C348.294 94 350.003 94 351.586 94H401.711C402.128 95.6667 402.461 97.5833 402.711 99.75C402.961 101.833 403.086 103.583 403.086 105C403.086 106.5 402.961 108.292 402.711 110.375C402.461 112.458 402.128 114.417 401.711 116.25H351.586C350.003 116.25 348.294 116.25 346.461 116.25C344.711 116.167 342.878 116.125 340.961 116.125V191ZM551.707 168.625C551.707 176.708 550.457 182.5 547.957 186C545.457 189.5 540.874 191.25 534.207 191.25H459.832C455.165 191.25 451.457 189.792 448.707 186.875C446.04 183.958 444.707 179.958 444.707 174.875V21.875L446.207 20.25H546.832C547.249 22.25 547.499 24.1667 547.582 26C547.665 27.75 547.707 29.375 547.707 30.875C547.707 32.375 547.54 34.25 547.207 36.5C546.874 38.6667 546.332 40.75 545.582 42.75H486.332C484.499 42.75 482.124 42.75 479.207 42.75C476.374 42.75 473.499 42.7083 470.582 42.625C470.582 45.9583 470.624 48.7083 470.707 50.875C470.79 53.0417 470.832 55.7917 470.832 59.125V93.875C473.749 93.875 476.582 93.875 479.332 93.875C482.165 93.7917 484.499 93.75 486.332 93.75H533.332C533.749 95.5 534.082 97.4167 534.332 99.5C534.582 101.583 534.707 103.333 534.707 104.75C534.707 106.25 534.582 108.042 534.332 110.125C534.082 112.125 533.749 114.042 533.332 115.875H486.332C484.499 115.875 482.165 115.875 479.332 115.875C476.582 115.792 473.749 115.708 470.832 115.625V156.5C470.832 158.75 470.79 160.833 470.707 162.75C470.624 164.667 470.582 166.792 470.582 169.125C472.999 168.958 475.54 168.833 478.207 168.75C480.874 168.667 483.832 168.625 487.082 168.625H551.707ZM607.309 3.62499C608.225 5.79166 608.892 8.33333 609.309 11.25C609.809 14.1667 610.059 17.125 610.059 20.125C610.059 30.125 607.267 39.125 601.684 47.125C596.184 55.125 587.892 61.125 576.809 65.125C574.559 64.0417 572.809 62.2917 571.559 59.875C570.392 57.375 569.892 54.9167 570.059 52.5C574.225 50.5833 578.142 47.7917 581.809 44.125C585.475 40.375 587.392 36.0833 587.559 31.25C585.975 31 584.1 30.6667 581.934 30.25C579.767 29.75 578.142 29.0833 577.059 28.25C576.392 27.0833 575.809 25.3333 575.309 23C574.892 20.6667 574.684 18.4167 574.684 16.25C574.684 14.1667 574.892 11.8333 575.309 9.24999C575.725 6.58332 576.309 4.70833 577.059 3.62499C578.559 2.79166 580.809 2.04166 583.809 1.37499C586.892 0.624995 589.725 0.249997 592.309 0.249997C594.809 0.249997 597.559 0.583326 600.559 1.24998C603.559 1.83332 605.809 2.62499 607.309 3.62499ZM644.068 20.25C645.985 19.8333 648.152 19.5833 650.568 19.5C653.068 19.3333 655.277 19.25 657.193 19.25C659.277 19.25 661.527 19.3333 663.943 19.5C666.36 19.5833 668.61 19.8333 670.693 20.25V191C668.61 191.417 666.36 191.667 663.943 191.75C661.527 191.917 659.277 192 657.193 192C655.277 192 653.068 191.917 650.568 191.75C648.152 191.667 645.985 191.417 644.068 191V20.25ZM756.424 86.125C753.34 79.9583 750.465 73.9583 747.799 68.125C745.215 62.2917 742.757 56.75 740.424 51.5L739.549 51.625C739.882 57.4583 740.215 63.9583 740.549 71.125C740.882 78.2083 741.132 85.4167 741.299 92.75C741.549 100 741.674 106.708 741.674 112.875V191C739.424 191.417 737.257 191.667 735.174 191.75C733.09 191.917 731.174 192 729.424 192C727.757 192 725.799 191.917 723.549 191.75C721.299 191.667 719.09 191.417 716.924 191V20.5C719.09 20.0833 721.757 19.7917 724.924 19.625C728.174 19.375 730.799 19.25 732.799 19.25C734.882 19.25 737.382 19.3333 740.299 19.5C743.299 19.5833 746.09 19.8333 748.674 20.25L801.549 125C804.715 131.583 807.674 138 810.424 144.25C813.257 150.417 815.882 156.042 818.299 161.125L819.174 161C818.674 154.333 818.257 147.25 817.924 139.75C817.674 132.167 817.466 124.792 817.299 117.625C817.132 110.375 817.049 103.875 817.049 98.125V35.75C817.049 29.9167 818.049 25.7083 820.049 23.125C822.132 20.4583 825.924 19.125 831.424 19.125H840.049L841.674 20.625V190.75C839.507 191.167 836.882 191.458 833.799 191.625C830.715 191.875 827.965 192 825.549 192C823.049 192 820.424 191.917 817.674 191.75C814.924 191.667 812.216 191.417 809.549 191L756.424 86.125Z" fill="white"/>
</svg>
