<?xml version="1.0" encoding="utf-8"?>
<!-- Generator: Adobe Illustrator 19.2.1, SVG Export Plug-In . SVG Version: 6.00 Build 0)  -->
<svg version="1.1" id="Layer_2" xmlns="http://www.w3.org/2000/svg" xmlns:xlink="http://www.w3.org/1999/xlink" x="0px" y="0px"
	 viewBox="0 0 134 38" style="enable-background:new 0 0 134 38;" xml:space="preserve">
<style type="text/css">
	.st0{fill:#14BF98;}
	.st1{fill:#FFFFFF;}
</style>
<title>logo</title>
<path class="st1" d="M79,34.5h-6.1v-6.1H60.7v6.1h-6.1V16.3c0-1.6,0.3-3.2,1-4.7c0.6-1.4,1.5-2.8,2.6-3.9c1.1-1.1,2.4-2,3.9-2.6
	c3-1.3,6.5-1.3,9.5,0c2.9,1.2,5.3,3.6,6.5,6.5c0.6,1.5,1,3.1,1,4.7L79,34.5L79,34.5z M72.9,22.4v-6.1c0-0.8-0.2-1.6-0.5-2.4
	c-0.6-1.5-1.8-2.6-3.3-3.2c-1.5-0.6-3.2-0.6-4.7,0c-1.5,0.6-2.6,1.8-3.3,3.2c-0.3,0.7-0.5,1.6-0.5,2.4v6.1H72.9z"/>
<path class="st1" d="M89.5,34.5h-5.8V11.8h1.4l1.9,2.7c1.9-1.7,4.3-2.7,6.9-2.7H99v5.8h-5.1c-0.6,0-1.2,0.1-1.7,0.3
	c-1.6,0.7-2.7,2.3-2.7,4.1L89.5,34.5L89.5,34.5z"/>
<path class="st1" d="M108.6,5.6c0,0.5-0.1,1-0.3,1.5c-0.2,0.5-0.5,0.9-0.8,1.2c-0.4,0.4-0.8,0.6-1.2,0.8c-1,0.4-2.1,0.4-3,0
	c-0.9-0.4-1.7-1.1-2.1-2c-0.4-1-0.4-2,0-3c0.4-0.9,1.1-1.7,2.1-2.1c1-0.4,2.1-0.4,3,0c0.5,0.2,0.9,0.5,1.2,0.8
	c0.4,0.4,0.6,0.8,0.8,1.2C108.4,4.6,108.6,5.1,108.6,5.6z M107.6,34.5h-5.8V11.8h5.8V34.5z"/>
<path class="st1" d="M134,34.5h-1.4l-2.3-3.1c-0.6,0.5-1.1,1-1.8,1.4c-0.6,0.4-1.3,0.8-1.9,1.1c-0.7,0.3-1.4,0.6-2.1,0.8
	c-0.7,0.2-1.4,0.3-2.2,0.3c-1.5,0-3.1-0.3-4.5-0.8c-1.4-0.5-2.6-1.3-3.7-2.3c-1.1-1.1-1.9-2.4-2.5-3.8c-0.6-1.6-0.9-3.3-0.9-5.1
	c0-1.7,0.3-3.3,0.9-4.9c0.6-1.4,1.4-2.7,2.5-3.8c1.1-1.1,2.3-1.9,3.7-2.5c1.4-0.6,3-0.9,4.5-0.9c0.7,0,1.5,0.1,2.2,0.3
	c0.7,0.2,1.4,0.4,2.1,0.8c0.7,0.3,1.3,0.7,1.9,1.1c0.6,0.4,1.2,0.9,1.7,1.4l2.3-2.7h1.4V34.5L134,34.5z M128.2,23
	c0-0.8-0.2-1.6-0.5-2.3c-0.3-0.7-0.7-1.4-1.2-2c-0.5-0.6-1.1-1-1.8-1.4c-0.7-0.3-1.5-0.5-2.2-0.5c-0.8,0-1.5,0.1-2.2,0.4
	c-0.7,0.3-1.3,0.7-1.8,1.2c-0.5,0.6-1,1.2-1.2,1.9c-0.3,0.8-0.5,1.7-0.4,2.6c0,0.9,0.1,1.8,0.4,2.6c0.3,0.7,0.7,1.4,1.2,1.9
	c0.5,0.5,1.1,0.9,1.8,1.2c0.7,0.3,1.5,0.4,2.2,0.4c0.8,0,1.5-0.2,2.2-0.5c0.7-0.3,1.3-0.8,1.8-1.4c0.5-0.6,0.9-1.2,1.2-2
	C128,24.5,128.2,23.8,128.2,23z"/>
</svg>

